<?xml version="1.0" standalone="no"?>
<!DOCTYPE svg PUBLIC "-//W3C//DTD SVG 1.1//EN" "http://www.w3.org/Graphics/SVG/1.1/DTD/svg11.dtd">
<svg xmlns="http://www.w3.org/2000/svg" width="1654" height="318" viewBox="0 0 1654 318" fill="none">
<path d="M290.06 27.3399C253.61 -9.11006 194.52 -9.11006 158.07 27.3399C155.54 29.8699 153.2 32.5099 151.02 35.2399L1.2 203.06L130.94 87.2399C130.72 90.5599 130.69 93.8799 130.82 97.2099L0 241.97L134.69 120.25C135.57 123.18 136.6 126.08 137.78 128.93L9.89 269.79L146.71 145.57C148.37 148.02 150.15 150.41 152.07 152.72L26.02 291.37L164.67 165.32C166.99 167.24 169.37 169.02 171.82 170.68L47.6 307.5L188.45 179.62C191.3 180.8 194.2 181.82 197.13 182.71L75.41 317.4L220.17 186.58C223.49 186.72 226.82 186.68 230.14 186.46L114.32 316.2L282.15 166.38C284.88 164.2 287.52 161.86 290.05 159.33C326.5 122.88 326.5 63.7899 290.05 27.3399H290.06Z" fill="#2BE195"/>
<path d="M424.28 134.46C431.21 132.05 439.27 130.84 448.46 130.84C461.11 130.84 470.98 132.27 478.06 135.13C485.14 137.99 489.43 141.46 490.94 145.52H523.03C521.37 138.89 517.64 132.79 511.84 127.22C506.04 121.65 497.86 117.09 487.32 113.55C476.77 110.01 463.82 108.24 448.45 108.24C433.08 108.24 419.07 110.43 407.32 114.79C395.57 119.16 386.49 125.3 380.09 133.21C373.68 141.12 370.49 150.2 370.49 160.44C370.49 171.29 373.65 180.78 379.98 188.91C386.31 197.05 395.35 203.34 407.1 207.78C418.85 212.22 432.64 214.45 448.46 214.45C464.28 214.45 476.29 212.49 486.76 208.57C497.23 204.65 505.33 199.57 511.05 193.32C516.77 187.07 520.54 180.33 522.35 173.09H490.94C489.43 178.37 485.14 182.81 478.06 186.42C470.98 190.04 461.11 191.84 448.46 191.84C439.42 191.84 431.43 190.48 424.5 187.77C417.57 185.06 412.18 181.29 408.34 176.47C404.5 171.65 402.58 166.3 402.58 160.43C402.58 154.56 404.46 149.36 408.23 144.84C411.99 140.32 417.34 136.86 424.27 134.44L424.28 134.46Z" fill="white"/>
<path d="M680.55 186.44C679.65 185.39 679.19 183.43 679.19 180.56V173.56H679.17L678.96 147.57C678.96 139.89 676.13 133.07 670.49 127.12C664.84 121.17 656.51 116.54 645.52 113.22C634.52 109.91 621.41 108.25 606.2 108.25C587.37 108.25 572.75 110.55 562.36 115.14C551.96 119.74 545.11 124.44 541.8 129.26C538.48 134.08 536.52 138 535.92 141.01H567.56C568.92 137.55 572.76 134.57 579.09 132.08C585.42 129.59 594.38 128.35 605.98 128.35C614.72 128.35 622.21 129.03 628.47 130.38C634.72 131.74 639.54 133.81 642.93 136.59C646.3 139.36 647.99 142.76 648.01 146.79C646.39 146.84 644.52 146.87 642.36 146.87C624.58 147.47 607.97 148.6 592.53 150.26C577.09 151.92 562.66 155.42 549.25 160.77C535.84 166.12 528.99 173.76 528.69 183.71C528.39 192.75 532.27 200.13 540.33 205.86C548.39 211.59 561.53 214.45 579.76 214.45C599.95 214.45 616.1 211.62 628.23 205.98C637.1 201.85 644.05 197.23 649.09 192.13C649.6 194.9 650.29 197.31 651.17 199.31C653.28 204.13 656.93 207.48 662.13 209.37C667.33 211.26 674.97 212.2 685.07 212.2H691.4V188.02H685.07C682.96 188.02 681.45 187.49 680.55 186.44ZM637.61 181.47C630.68 185.69 622.2 188.93 612.19 191.19C602.17 193.45 592.79 194.43 584.06 194.13C577.73 193.98 572.65 193.15 568.81 191.64C564.97 190.14 563.05 187.95 563.05 185.09C563.05 179.82 568.13 175.64 578.3 172.55C588.47 169.46 600.18 167.28 613.44 166C626.23 164.77 637.75 164.13 648.02 164.09V167.24C648.02 172.52 644.55 177.26 637.63 181.48L637.61 181.47Z" fill="white"/>
<path d="M959.77 186.44C958.87 185.39 958.41 183.43 958.41 180.56V173.56H958.39L958.18 147.57C958.18 139.89 955.35 133.07 949.71 127.12C944.06 121.17 935.73 116.54 924.74 113.22C913.74 109.91 900.63 108.25 885.42 108.25C866.59 108.25 851.97 110.55 841.58 115.14C831.18 119.74 824.33 124.44 821.02 129.26C817.7 134.08 815.74 138 815.14 141.01H846.78C848.14 137.55 851.98 134.57 858.31 132.08C864.64 129.59 873.6 128.35 885.2 128.35C893.94 128.35 901.43 129.03 907.69 130.38C913.94 131.74 918.76 133.81 922.15 136.59C925.52 139.36 927.21 142.76 927.23 146.79C925.61 146.84 923.74 146.87 921.58 146.87C903.8 147.47 887.19 148.6 871.75 150.26C856.31 151.92 841.88 155.42 828.47 160.77C815.06 166.12 808.21 173.76 807.91 183.71C807.61 192.75 811.49 200.13 819.55 205.86C827.61 211.59 840.75 214.45 858.98 214.45C879.17 214.45 895.32 211.62 907.45 205.98C916.32 201.85 923.27 197.23 928.31 192.13C928.82 194.9 929.51 197.31 930.39 199.31C932.5 204.13 936.15 207.48 941.35 209.37C946.55 211.26 954.19 212.2 964.29 212.2H970.62V188.02H964.29C962.18 188.02 960.67 187.49 959.77 186.44ZM916.83 181.47C909.9 185.69 901.42 188.93 891.41 191.19C881.39 193.45 872.01 194.43 863.28 194.13C856.95 193.98 851.87 193.15 848.03 191.64C844.19 190.14 842.27 187.95 842.27 185.09C842.27 179.82 847.35 175.64 857.52 172.55C867.69 169.46 879.4 167.28 892.66 166C905.45 164.77 916.97 164.13 927.24 164.09V167.24C927.24 172.52 923.77 177.26 916.85 181.48L916.83 181.47Z" fill="white"/>
<path d="M1106.72 114.69C1094.36 110.1 1079.6 108.1 1062.43 108.7C1048.27 109.15 1036.36 112.39 1026.72 118.42C1021.74 121.53 1017.45 124.91 1013.84 128.54V110.51H982.88V253.56H1014.52V194.85C1017.99 198.23 1022.05 201.38 1026.72 204.3C1036.36 210.33 1048.26 213.56 1062.43 214.02C1079.75 214.62 1094.59 212.74 1106.95 208.37C1119.3 204 1128.64 197.75 1134.97 189.61C1141.3 181.48 1144.46 172.14 1144.46 161.59C1144.46 151.04 1141.26 142.12 1134.86 133.91C1128.45 125.7 1119.08 119.3 1106.73 114.7L1106.72 114.69ZM1105.82 177.63C1101.45 182.15 1095.73 185.58 1088.65 187.91C1081.57 190.25 1074.04 191.41 1066.05 191.41C1057.61 191.41 1049.44 190.39 1041.53 188.36C1033.62 186.33 1027.07 183.05 1021.87 178.53C1016.67 174.01 1014.07 168.29 1014.07 161.36C1014.07 153.83 1016.67 147.84 1021.87 143.39C1027.07 138.95 1033.54 135.82 1041.3 134.01C1049.06 132.2 1057.31 131.3 1066.05 131.3C1074.03 131.3 1081.56 132.51 1088.65 134.92C1095.73 137.33 1101.45 140.84 1105.82 145.43C1110.19 150.03 1112.37 155.41 1112.37 161.59C1112.37 167.77 1110.18 173.12 1105.82 177.63Z" fill="white"/>
<path d="M1271.91 153.89V156.6C1271.61 163.38 1269.95 169.45 1266.94 174.79C1263.93 180.14 1258.92 184.51 1251.91 187.9C1244.9 191.29 1235.45 192.98 1223.55 192.98C1214.96 192.98 1207.99 192.15 1202.65 190.49C1197.3 188.83 1193.27 186.01 1190.56 182.02C1187.85 178.03 1186.49 172.64 1186.49 165.86V110.49H1154.85V165.18C1154.85 176.78 1157.14 186.39 1161.74 193.99C1166.33 201.6 1173.72 207.17 1183.89 210.71C1194.06 214.25 1207.28 215.49 1223.55 214.44C1235.3 213.68 1245.32 211.02 1253.61 206.42C1261.58 202 1267.9 196.52 1272.59 190.01V212.18H1303.55V110.49H1271.91V153.88V153.89Z" fill="white"/>
<path d="M1646.82 188.02C1644.71 188.02 1643.2 187.49 1642.3 186.44C1641.4 185.39 1640.94 183.43 1640.94 180.56V173.56H1640.92L1640.71 147.57C1640.71 139.89 1637.88 133.07 1632.24 127.12C1626.59 121.17 1618.26 116.54 1607.27 113.22C1596.27 109.91 1583.16 108.25 1567.95 108.25C1549.12 108.25 1534.5 110.55 1524.11 115.14C1513.71 119.74 1506.86 124.44 1503.55 129.26C1500.23 134.08 1498.27 138 1497.67 141.01H1529.31C1530.67 137.55 1534.51 134.57 1540.84 132.08C1547.17 129.59 1556.13 128.35 1567.73 128.35C1576.47 128.35 1583.96 129.03 1590.22 130.38C1596.47 131.74 1601.29 133.81 1604.68 136.59C1608.05 139.36 1609.74 142.76 1609.76 146.79C1608.14 146.84 1606.27 146.87 1604.11 146.87C1586.33 147.47 1569.72 148.6 1554.28 150.26C1538.84 151.92 1524.41 155.42 1511 160.77C1497.59 166.12 1490.74 173.76 1490.44 183.71C1490.14 192.75 1494.02 200.13 1502.08 205.86C1510.14 211.59 1523.28 214.45 1541.51 214.45C1561.7 214.45 1577.85 211.62 1589.98 205.98C1598.85 201.85 1605.8 197.23 1610.84 192.13C1611.35 194.9 1612.04 197.31 1612.92 199.31C1615.03 204.13 1618.68 207.48 1623.88 209.37C1629.08 211.26 1636.72 212.2 1646.82 212.2H1653.15V188.02H1646.82ZM1599.36 181.47C1592.43 185.69 1583.95 188.93 1573.94 191.19C1563.92 193.45 1554.54 194.43 1545.81 194.13C1539.48 193.98 1534.4 193.15 1530.56 191.64C1526.72 190.14 1524.8 187.95 1524.8 185.09C1524.8 179.82 1529.88 175.64 1540.05 172.55C1550.22 169.46 1561.93 167.28 1575.19 166C1587.98 164.77 1599.5 164.13 1609.77 164.09V167.24C1609.77 172.52 1606.3 177.26 1599.38 181.48L1599.36 181.47Z" fill="white"/>
<path d="M1351.57 186.21C1350.44 185.01 1349.87 182.9 1349.87 179.88V66.7801C1339.88 65.7401 1329.71 64.7601 1319.36 63.8301V179.87C1319.36 188.91 1320.53 195.73 1322.86 200.32C1325.19 204.92 1329.04 208.04 1334.39 209.7C1339.74 211.36 1347.53 212.19 1357.78 212.19H1377.21V188.01H1357.78C1354.76 188.01 1352.7 187.41 1351.57 186.2V186.21Z" fill="white"/>
<path d="M742.61 76.5601C732.13 78.1301 721.95 79.7701 712.09 81.4801V110.51H687.01V133.11H712.09V179.89C712.09 188.93 713.26 195.75 715.59 200.34C717.92 204.94 721.77 208.06 727.12 209.72C732.47 211.38 740.34 212.21 750.73 212.21H800.67V188.03H750.73C747.72 188.03 745.65 187.43 744.52 186.22C743.39 185.02 742.82 182.91 742.82 179.89L742.72 133.11H800.67V110.51H742.67L742.6 76.5601H742.61Z" fill="white"/>
<path d="M1425.16 76.2C1415.33 74.74 1405.24 73.35 1394.9 72.01C1394.9 81.48 1394.65 95.34 1394.45 110.51H1369.54V133.11H1394.23C1394.05 164.56 1394.6 195.24 1398.13 200.34C1405.64 212.8 1417.04 211.39 1433.27 212.2H1483.21V188.02C1479.36 187.21 1428.73 190.01 1427.05 186.21C1425.92 185.01 1425.35 182.9 1425.35 179.88L1425.26 133.1H1483.2V110.5H1425.22L1425.16 76.19V76.2Z" fill="white"/>
</svg>